<?xml version="1.0" encoding="UTF-8" standalone="no"?>
<svg
   xmlns:dc="http://purl.org/dc/elements/1.1/"
   xmlns:cc="http://creativecommons.org/ns#"
   xmlns:rdf="http://www.w3.org/1999/02/22-rdf-syntax-ns#"
   xmlns:svg="http://www.w3.org/2000/svg"
   xmlns="http://www.w3.org/2000/svg"
   viewBox="0 0 566.93335 108.41333"
   height="108.41333"
   width="566.93335"
   xml:space="preserve"
   id="svg2"
   version="1.1"><metadata
     id="metadata8"><rdf:RDF><cc:Work
         rdf:about=""><dc:format>image/svg+xml</dc:format><dc:type
           rdf:resource="http://purl.org/dc/dcmitype/StillImage" /></cc:Work></rdf:RDF></metadata><defs
     id="defs6" /><g
     transform="matrix(1.3333333,0,0,-1.3333333,0,108.41333)"
     id="g10"><g
       transform="scale(0.1)"
       id="g12"><path
         id="path14"
         style="fill:#004232;fill-opacity:1;fill-rule:nonzero;stroke:none"
         d="m 4195.72,486.617 c 1.4,5.727 2.42,11.719 2.94,18.012 5.83,70.219 -32.3,137.793 -85.88,179.672 -7.77,6.101 -15.83,11.422 -24.08,16.082 -13.96,7.972 -48.72,43.031 -86.42,69.012 -42.82,29.527 -94.02,46.675 -145.38,43.261 -53.68,-3.519 -100.89,-24.281 -134.14,-59.636 -31.42,-33.387 -61.42,-74.641 -84.26,-84.985 -22.79,-10.383 -39.41,-22.965 -40.07,-22.738 -0.4,0.137 -0.77,0.305 -1.21,0.406 -88.4,23.336 -156.57,-39.715 -182.66,-119.808 -19.25,-59.004 -10.64,-121.68 20.96,-170.911 24.75,-38.562 56.45,-81.191 62.38,-108.816 3.45,-16.242 8.98,-32.316 16.34,-48.32 23.24,-50.43 69.05,-87.696 119.51,-107.93 60.24,-24.0742 129.72,-15.7735 192.2,-29.8242 0.33,-0.0391 0.63,-0.0704 0.95,-0.0704 0.46,-0.0664 7.02,-3.5156 15.07,-6.6015 4.67,-1.8047 9.63,-3.3477 14.89,-4.6485 69.98,-16.914 144.42,-8.6406 199.9,39.4454 11.04,9.5976 21.4,20.8282 30.95,33.2812 15.22,19.961 62.17,47.117 97.73,76.004 31.82,25.891 54.08,61.68 63.19,106.555 6.36,31.406 3.72,68.406 -8.67,100.757 -16.34,42.821 -46.62,72.02 -44.24,81.801 m -63.18,-39.144 c -15.51,-19.657 -35.33,-28.028 -43.53,-21.336 -4.9,3.992 -10.08,7.773 -15.64,11.261 -1.11,0.762 -2.24,1.332 -3.32,1.774 -1.97,0.699 1.57,30.867 -4.41,66.766 -3.49,21.191 -10.33,42.054 -20.96,62.277 -17.99,34.191 -46.02,57.527 -78.16,68.57 -43.32,14.945 -54.92,32.391 -10.22,42.469 48.46,10.809 103.23,-2.141 146.44,-39.844 39.62,-34.664 65.16,-100.324 51.6,-152.597 -3.56,-13.653 -11.9,-26.719 -21.8,-39.34 M 3833.75,324.984 c -20.05,54.844 9.68,109.094 62.69,125.801 32.41,10.215 55.78,0.195 71.73,-19.148 27.85,-33.887 17.78,-91.985 1.87,-111.242 -9.69,-11.582 -20.63,-21.961 -33.11,-30.536 -40.42,-27.492 -87.24,-8.769 -103.18,35.125 m -24.07,113.047 c -43.23,-56.765 -23.78,-150.047 32.95,-188.593 7.9,-5.321 15.8,-9.2 23.81,-11.778 13.96,-4.59 2.47,-29.433 -35.97,-32.078 -38.41,-2.609 -70.01,13.289 -72.72,14.356 -2.69,1.082 -40.46,15.378 -74.44,46.042 -23.17,21.008 -41.15,45.235 -49.32,69.153 -12.12,35.691 -8.34,74.336 10.38,106.844 22.57,39.05 76.24,51.668 114.65,68.515 13.82,6.028 27.21,14.797 40.39,24.481 21.05,15.492 39.29,29.797 41.25,31.238 1.94,1.539 26.72,26.547 63.94,35.32 20.61,4.891 42.43,2.614 66.44,-11.82 32.12,-19.348 48.32,-49.52 53.87,-82.875 7.57,-45.164 -12.38,-56.926 -35.52,-36.324 -13.13,11.777 -29.56,20.187 -50.02,23.605 -49.66,8.442 -100.05,-17.172 -129.69,-56.086 m -209.31,7.832 c -6.67,-14.863 -39.21,1.84 -38.87,47.653 0.63,84.047 94.63,167.148 180.6,144.918 44.38,-11.516 67.41,-45.766 66.91,-46.243 -0.27,-0.332 -0.6,-0.57 -0.84,-0.839 -22.46,-22.161 -47.38,-35.989 -76.3,-47.844 -42.07,-17.313 -89.68,-33.117 -116.98,-72.098 -5.76,-8.203 -10.57,-16.738 -14.52,-25.547 m 333.84,314.387 c 35.28,-13.961 20.29,-33.551 -21.27,-52.84 -9.2,-4.258 -18.05,-9.203 -26.51,-14.894 -38.07,-25.453 -75.07,-38.778 -104.07,-24.317 -28.97,14.399 -42.09,53.75 -3.29,78.055 24.65,15.402 54.78,23.707 88,25.879 22.06,1.476 45.03,-3.172 67.14,-11.883 M 3490.14,577.793 c 31.31,31.945 45.47,2.816 34.78,-41.754 -3.28,-13.66 -4.78,-27.453 -4.51,-41.219 1.04,-45.804 6.32,-90.582 -4.52,-111.972 -10.89,-21.368 -46.75,-17.012 -61.25,26.414 -10.08,30.207 -10.85,64.129 -2.51,98.183 6.47,26.516 19.69,51.668 38.01,70.348 m 44.36,-284.281 c 0.68,13.484 2.98,31.64 8.21,48.543 8.06,26.054 29.7,37.004 34.78,32.453 5.1,-4.582 10.73,-35.031 22.81,-65.43 7.17,-18.254 17.08,-35.598 29.23,-51.23 12.7,-16.407 29.33,-31.575 48.42,-44.602 30.14,-20.664 67.64,-46.941 78.46,-67.508 10.85,-20.558 -16.35,-34.523 -61.45,-26.418 -44.7,8.078 -86.49,23.371 -121.37,62.618 -26.97,30.304 -41.1,71.425 -39.09,111.574 M 3867.78,88.4805 c -20.83,4.289 -36.14,15.5785 -48.49,30.4105 -20.64,24.777 8.53,41.015 52.17,54.98 32.44,10.41 60.04,32.277 76.87,69.043 0.65,1.406 1.08,2.707 1.42,4.055 0.56,2.383 22.43,17.383 43.66,39.949 13.46,14.328 24.97,29.922 33.71,44.531 0.81,1.367 1.54,2.676 2.35,4.055 1.21,2.234 3.72,5.488 4.93,7.656 1.2,2.215 7.5,15.176 13.39,29.344 5.85,14.121 33.58,7.656 47.05,-25.32 8.39,-20.657 12.48,-43.164 11.84,-62.981 -1.94,-60.711 -37.77,-124.226 -79.05,-166.855 -40.31,-41.5511 -107.85,-39.3832 -159.85,-28.8675 m 313.61,161.9065 c -21.12,-26.125 -34.29,-1.848 -34.69,43.965 -0.04,1.269 -0.04,2.566 -0.11,3.886 -1.17,45.762 -10.1,92.645 1.81,107.645 11.93,15.035 48.99,7.027 57.87,-30.867 5.46,-23.379 4.95,-48.692 0.57,-70.118 -4.32,-21.242 -13.22,-39.386 -25.45,-54.511" /><path
         id="path16"
         style="fill:#004232;fill-opacity:1;fill-rule:nonzero;stroke:none"
         d="m 1357.75,757.461 h 40.6 v 41.691 h -40.6 v -41.691" /><path
         id="path18"
         style="fill:#004232;fill-opacity:1;fill-rule:nonzero;stroke:none"
         d="M 1399.45,693.414 H 1357.2 V 564.82 c 0,-20.375 -1.71,-34.824 -5.08,-42.933 -8.04,-16.114 -23.53,-23.836 -47.48,-23.836 H 419.984 c -24.8,0 -42.48,3.742 -52.531,11.113 -14.144,10.094 -21.328,30.301 -21.328,60.027 V 799.105 H 304.43 v -254.48 c 0,-28.012 6.418,-49.234 19.605,-64.879 13.965,-16.844 33.742,-25.023 60.469,-25.023 h 932.686 c 56.11,0 82.26,28.386 82.26,89.355 v 149.336" /><path
         id="path20"
         style="fill:#004232;fill-opacity:1;fill-rule:nonzero;stroke:none"
         d="m 1481.31,454.723 h 28.77 v 343.746 h -28.77 V 454.723" /><path
         id="path22"
         style="fill:#004232;fill-opacity:1;fill-rule:nonzero;stroke:none"
         d="m 3150.51,741.859 h 29.85 v 36.95 h -29.85 v -36.95" /><path
         id="path24"
         style="fill:#004232;fill-opacity:1;fill-rule:nonzero;stroke:none"
         d="m 1566.47,392.398 v -26.886 c 73.65,5.605 105.18,45.023 105.18,130.879 v 196.714 h -28.76 V 489.301 c 0,-63.356 -25.01,-95.098 -76.42,-96.903" /><path
         id="path26"
         style="fill:#004232;fill-opacity:1;fill-rule:nonzero;stroke:none"
         d="m 3273.7,573.91 c 0,72.078 -42.5,118.653 -108.27,118.653 -66.07,0 -110.46,-47.899 -110.46,-119.196 0,-33.426 8.82,-61.062 26.21,-82.152 l 6.38,-7.727 H 2927.1 l 3.26,6.77 c 6.58,13.648 9.91,32.422 9.91,55.812 v 252.391 h -28.76 V 562.992 c 0,-25.945 -2.86,-43.984 -8.73,-55.148 -8.57,-16.516 -25.58,-24.903 -50.58,-24.903 h -915.24 v 106.258 c 0,67.364 -33.23,104.457 -93.55,104.457 -29.55,0 -54.8,-11.59 -75.06,-34.441 -20.13,-23.301 -29.93,-51.402 -29.93,-85.848 0,-34.183 9.54,-62.914 28.37,-85.402 18.73,-22.375 42.19,-33.242 71.72,-33.242 h 65.64 l -1.57,-5.934 c -9.82,-36.941 -34.42,-56.469 -71.17,-56.469 h -0.19 v -26.777 c 58.07,4.93 91.26,32.895 101.46,85.352 l 0.74,3.828 h 1231.46 c 64.08,0 108.82,49.011 108.82,119.187 m -1366.6,-90.379 -68.01,-0.59 c -22.99,0 -41.44,11.231 -54.85,33.387 -10.6,17.285 -15.97,37.774 -15.97,60.86 0,21.535 6.16,41.523 18.29,59.425 14.11,20.578 32.5,31 54.68,31 21.19,0 38,-6.968 49.96,-20.726 10.53,-11.699 15.9,-26.36 15.9,-43.492 z m 1181.54,87.657 c 0,63.023 28.59,99.16 78.43,99.16 46.37,0 74.06,-34.625 74.06,-92.61 0,-66.886 -25.65,-100.808 -76.25,-100.808 -47.03,0 -76.24,36.117 -76.24,94.258" /><path
         id="path28"
         style="fill:#004232;fill-opacity:1;fill-rule:nonzero;stroke:none"
         d="m 229.305,573.953 c 0,71.457 -43.586,119.461 -108.461,119.461 -63.5432,0 -107.9182,-48.434 -107.9182,-117.769 0,-70.778 43.3672,-118.325 107.9182,-118.325 17.726,0 31.34,4.262 40.761,12.59 l 0.024,-0.008 c 0.031,0.036 0.059,0.071 0.094,0.102 1.453,1.305 2.793,2.726 4.043,4.215 0.101,0.117 0.203,0.23 0.304,0.344 0.344,0.417 0.703,0.804 1.028,1.23 8.461,9.855 15.601,22.211 21.953,36.062 l -0.895,-35.863 c -1.172,-46.789 -21.863,-75.074 -58.414,-80.058 v -31.125 c 66.981,2.492 99.563,32.16 99.563,90.64 z m -174.137,1.692 c 0,45.562 27.0547,79.925 62.945,79.925 40.262,0 67.313,-33.25 67.313,-82.734 0,-44.613 -27.762,-78.242 -64.582,-78.242 -37.4377,0 -65.676,34.844 -65.676,81.051" /><path
         id="path30"
         style="fill:#004232;fill-opacity:1;fill-rule:nonzero;stroke:none"
         d="m 339.117,114.887 c 0,-9.649 -1.035,-16.4143 -3.105,-20.1448 -2.852,-5.6953 -8.524,-8.457 -17.344,-8.457 h -135.5 V 86.5 h -5.551 c -15.379,0 -22.152,6.0234 -30.183,26.824 -6.465,16.731 -24.59,31.399 -38.766,31.399 -12.6367,0 -12.6367,-0.285 -12.6367,-1.477 l 0.2148,-1.035 v -13.535 h 1.0352 c 17.5937,0 26.8787,-9.746 26.8787,-28.184 0,-25.535 -25.1991,-48.7967 -52.8787,-48.7967 -33.2774,0 -53.9532,24.207 -53.9532,63.1917 v 19.726 H 0.00390625 v -22.519 c 0,-43.4651 31.02739375,-77.5198 70.63279375,-77.5198 35.6173,0 65.9923,26.9141 69.0933,59.9219 6.137,-15.0859 19.911,-24.4531 37.286,-25.0859 l 146.589,-0.0313 c 21.645,0 32.622,13.0781 32.622,38.8481 v 60.761 h -17.11 v -54.101" /><path
         id="path32"
         style="fill:#004232;fill-opacity:1;fill-rule:nonzero;stroke:none"
         d="m 338.898,182.379 h 17.321 v 20.332 h -17.321 v -20.332" /><path
         id="path34"
         style="fill:#004232;fill-opacity:1;fill-rule:nonzero;stroke:none"
         d="m 1299.07,114.887 c 0,-9.649 -1.04,-16.4143 -3.11,-20.1448 -2.85,-5.6953 -8.53,-8.457 -17.34,-8.457 h -5.83 V 86.5 h -206.24 v 5.6133 c 0,22.1597 -6.45,40.1877 -19.18,53.5667 -12.97,13.613 -30.72,20.508 -52.749,20.508 h -17.312 l 25.551,44.05 h -20.231 l -5.215,-9.336 C 965.59,179.789 956.281,163.129 949.465,150.844 l -0.86,-1.531 h 46.016 c 17.839,0 31.449,-5.735 40.449,-17.024 7.69,-9.559 11.58,-22.715 11.58,-39.1015 0,-2.1562 -0.14,-4.3359 -0.34,-6.6875 H 775.695 c 2.336,5.6055 3.516,12.8984 3.516,21.727 v 60.761 h -17.113 v -54.101 c 0,-9.578 -1.047,-16.4339 -3.098,-20.3597 -2.879,-5.5468 -8.555,-8.2421 -17.348,-8.2421 h -7.988 V 86.5 h -212.23 v 82.488 H 504.32 V 85.8828 c 0,-24.0508 -9.23,-35.2734 -29.039,-35.2734 h -1.043 V 34.0859 l 1.102,0.0704 c 25.117,1.5234 40.058,13.3671 44.402,35.2226 h 763.828 c 21.63,0 32.6,13.0781 32.6,38.8481 v 102.218 h -17.1 v -95.558" /><path
         id="path36"
         style="fill:#004232;fill-opacity:1;fill-rule:nonzero;stroke:none"
         d="m 418.781,169.625 c -24.765,0 -42.07,-19.855 -42.07,-48.293 0,-28.2304 17.695,-48.7304 42.07,-48.7304 10.918,0 19.024,3.2734 24.168,9.7265 C 441.656,61 432.102,50.6211 413.84,50.6211 h -1.035 V 34.0977 l 1.09,0.0586 c 32.027,1.7382 46.312,18.5625 46.312,54.5312 v 32.0005 c 0,28.359 -17.426,48.937 -41.426,48.937 m 24.731,-48.937 c 0,-19.11 -10.071,-32.4692 -24.516,-32.4692 -14.707,0 -25.394,14.0112 -25.394,33.3282 0,19.25 10.007,32.687 24.324,32.687 14.832,0 25.586,-14.113 25.586,-33.546" /><path
         id="path38"
         style="fill:#004232;fill-opacity:1;fill-rule:nonzero;stroke:none"
         d="m 750.855,202.719 h -17.324 v -20.332 h 17.324 v 20.332" /><path
         id="path40"
         style="fill:#004232;fill-opacity:1;fill-rule:nonzero;stroke:none"
         d="m 2822.91,202.719 h -17.55 v -20.332 h 17.55 v 20.332" /><path
         id="path42"
         style="fill:#004232;fill-opacity:1;fill-rule:nonzero;stroke:none"
         d="m 2794.77,202.719 h -17.53 v -20.332 h 17.53 v 20.332" /><path
         id="path44"
         style="fill:#004232;fill-opacity:1;fill-rule:nonzero;stroke:none"
         d="M 77.7695,-0.00390625 H 95.0898 V 20.3359 H 77.7695 V -0.00390625" /><path
         id="path46"
         style="fill:#004232;fill-opacity:1;fill-rule:nonzero;stroke:none"
         d="M 779,202.719 H 761.672 V 182.387 H 779 v 20.332" /><path
         id="path48"
         style="fill:#004232;fill-opacity:1;fill-rule:nonzero;stroke:none"
         d="M 49.6328,-0.00390625 H 66.957 V 20.3359 H 49.6328 V -0.00390625" /><path
         id="path50"
         style="fill:#004232;fill-opacity:1;fill-rule:nonzero;stroke:none"
         d="m 1352.08,53.2773 c 3.89,0 6.16,-2.1289 7.15,-6.6992 l 0.21,-0.9375 10.45,1.3477 -0.25,1.1015 c -2.03,9.5118 -8.01,14.3477 -17.76,14.3477 -6.02,0 -10.84,-2.0039 -14.35,-5.9766 -2.67,-3.3515 -4.09,-8.0976 -4.09,-13.75 0,-2.3828 0.3,-4.5625 0.86,-6.4843 h -7.96 V 25.5508 h 43.33 v 10.6758 h -23.71 c -1.08,1.6093 -1.64,3.789 -1.64,6.4843 0,7.1094 2.55,10.5664 7.76,10.5664" /><path
         id="path52"
         style="fill:#004232;fill-opacity:1;fill-rule:nonzero;stroke:none"
         d="m 2292.7,218.18 h -23.47 c -1.12,1.804 -1.66,4.004 -1.66,6.707 0,7.101 2.54,10.558 7.76,10.558 3.94,0 6.14,-2.121 6.93,-6.652 l 0.16,-0.957 10.93,1.066 -0.24,1.141 c -2.03,9.668 -8,14.57 -17.78,14.57 -11.68,0 -18.64,-7.461 -18.64,-19.949 0,-2.344 0.33,-4.523 1.01,-6.484 h -8.11 v -10.664 h 43.11 v 10.664" /><path
         id="path54"
         style="fill:#004232;fill-opacity:1;fill-rule:nonzero;stroke:none"
         d="m 2633.72,69.3789 h 17.11 V 210.445 h -17.11 V 69.3789" /><path
         id="path56"
         style="fill:#004232;fill-opacity:1;fill-rule:nonzero;stroke:none"
         d="m 1670.31,114.887 c 0,-9.649 -1.04,-16.4143 -3.1,-20.137 -3.05,-5.6914 -8.72,-8.4648 -17.35,-8.4648 H 1390.49 L 1363.43,193.91 h -18.48 l 27.72,-107.6248 h -34.73 V 69.3789 h 316.87 c 21.64,0 32.61,13.0781 32.61,38.8481 v 102.218 h -17.11 v -95.558" /><path
         id="path58"
         style="fill:#004232;fill-opacity:1;fill-rule:nonzero;stroke:none"
         d="m 3253.83,168.988 v -54.101 c 0,-21.7581 -4.78,-28.387 -20.45,-28.387 h -24.17 c 2.34,5.5938 3.52,12.8984 3.52,21.727 v 60.761 h -17.12 v -54.101 c 0,-21.7581 -4.03,-28.387 -17.21,-28.387 h -26.97 c 2.32,5.9648 3.5,13.2695 3.5,21.727 v 60.761 h -17.1 V 113.043 C 3136.36,95.1719 3129.25,86.5 3116.1,86.5 h -147.89 v -0.2266 h -20.27 v 38.9256 c 0,27.969 -14.46,44.004 -39.71,44.004 -12.5,0 -23.17,-4.883 -31.71,-14.539 -8.3,-9.59 -12.5,-21.601 -12.5,-35.695 0,-14.141 3.98,-26.0627 11.84,-35.469 7.84,-9.375 18.09,-14.1211 30.44,-14.1211 h 22.04 c -3.73,-12.4492 -12.08,-18.7695 -24.82,-18.7695 h -2.98 V 34.0859 l 1.09,0.0704 c 24.91,1.5117 39.85,13.3671 44.42,35.2226 h 292.26 c 21.8,0 32.85,13.0781 32.85,38.8481 v 60.761 z M 2888.24,142.23 c 4.98,7.266 11.42,10.938 19.14,10.938 7.56,0 13.29,-2.332 17.5,-7.176 3.66,-4.074 5.51,-9.191 5.51,-15.207 V 86.4883 l -23.87,-0.2149 c -8.07,0 -14.32,3.8477 -19.1,11.7579 -3.88,6.3477 -5.86,13.8987 -5.86,22.4417 0,7.871 2.26,15.207 6.68,21.757" /><path
         id="path60"
         style="fill:#004232;fill-opacity:1;fill-rule:nonzero;stroke:none"
         d="m 2800.82,172.426 c -25.55,0 -41.42,-17.52 -41.42,-45.731 0,-13.808 3.92,-24.953 11.68,-33.1559 7.97,-8.1836 18.19,-12.3321 30.39,-12.3321 10,0 18.28,3.125 24.7,9.3164 -2.34,-13.5273 -8.45,-23.8086 -18.21,-30.6367 -9.14,-6.375 -20.05,-9.4804 -33.34,-9.4804 -15.02,0 -27.49,5.3789 -37.05,15.9765 -9.79,10.8594 -14.55,24.4805 -14.55,41.6402 v 36.473 h -17.55 V 105.23 c 0,-20.8198 6.76,-38.1245 20.08,-51.4448 13.53,-13.3125 30.25,-20.0704 49.71,-20.0704 21.24,0 38.04,6.25 49.94,18.5743 12.33,12.5586 18.34,29.3867 18.34,51.4379 v 23.621 c 0,27.804 -16.37,45.078 -42.72,45.078 m -19.08,-24.539 c 4.36,7.449 10.32,11.082 18.22,11.082 h 2.15 c 8.66,0 14.98,-3.692 19.29,-11.27 3.2,-5.976 4.81,-13.328 4.81,-21.855 0,-8.379 -1.83,-15.215 -5.62,-20.899 -4.52,-6.777 -10.77,-10.0778 -19.12,-10.0778 -8.48,0 -14.8,3.5078 -19.31,10.6838 -3.6,5.918 -5.43,13.176 -5.43,21.582 0,7.726 1.69,14.707 5.01,20.754" /><path
         id="path62"
         style="fill:#004232;fill-opacity:1;fill-rule:nonzero;stroke:none"
         d="m 2589.9,114.887 c 0,-24.18 -6.88,-28.6018 -20.45,-28.6018 H 2310.09 L 2283.02,193.91 h -18.47 l 27.71,-107.6248 h -34.73 V 69.3789 h 316.86 c 21.65,0 32.62,13.0781 32.62,38.8481 v 102.218 h -17.11 v -95.558" /><path
         id="path64"
         style="fill:#004232;fill-opacity:1;fill-rule:nonzero;stroke:none"
         d="m 2218.46,182.379 h 17.31 v 20.332 h -17.31 v -20.332" /><path
         id="path66"
         style="fill:#004232;fill-opacity:1;fill-rule:nonzero;stroke:none"
         d="m 1714.13,69.3789 h 17.11 V 210.445 h -17.11 V 69.3789" /><path
         id="path68"
         style="fill:#004232;fill-opacity:1;fill-rule:nonzero;stroke:none"
         d="m 1815.96,85.8828 c 0,-24.0625 -9.23,-35.2617 -29.04,-35.2617 h -1.04 V 34.0977 l 1.1,0.0586 c 31.87,1.7382 46.1,18.5546 46.1,54.5312 v 80.3005 h -17.12 V 85.8828" /><path
         id="path70"
         style="fill:#004232;fill-opacity:1;fill-rule:nonzero;stroke:none"
         d="m 2108.38,189.82 -1.21,0.215 v -17.5 l 0.74,-0.207 c 24.76,-7.156 49.74,-31.414 49.74,-69.473 0,-5.6128 -0.58,-11.1206 -1.73,-16.355 h -28.56 c 5.93,7.7031 8.94,17.313 8.94,28.594 0,25.554 -15.7,42.722 -39.06,42.722 -23.51,0 -39.91,-17.644 -39.91,-42.918 0,-11.367 2.88,-20.9878 8.56,-28.6128 H 1909.12 V 86.5 h -1.03 c -10.32,0 -12.18,0 -13.61,0.1953 -5.58,0.8203 -9.36,2.8594 -11.52,6.211 -2.74,4.207 -4.13,11.1717 -4.13,20.6917 v 96.847 h -17.54 V 104.574 c 0,-11.7849 3.13,-20.5271 9.53,-26.7263 5.63,-5.6172 12.46,-8.4688 20.3,-8.4688 h 279.8 l 0.17,0.8203 c 2.19,10.2852 3.25,19.9922 3.25,29.6602 0,21.4136 -5.2,39.8906 -15.43,54.9216 -11.3,16.824 -33.02,31.883 -50.53,35.039 m -33.29,-75.793 c 0,18.868 8.1,29.258 22.8,29.258 13.47,0 20.88,-9.695 20.88,-27.324 0,-19.8243 -7.11,-29.461 -21.74,-29.461 -13.53,0 -21.94,10.5547 -21.94,27.527" /><path
         id="path72"
         style="fill:#004232;fill-opacity:1;fill-rule:nonzero;stroke:none"
         d="m 2218.45,85.8828 c 0,-24.0625 -9.23,-35.2617 -29.04,-35.2617 h -1.04 V 34.0977 l 1.1,0.0586 c 31.87,1.7382 46.09,18.5546 46.09,54.5312 v 80.3005 h -17.11 V 85.8828" /></g></g></svg>